<svg width="84" height="84" viewBox="0 0 84 84" fill="none" xmlns="http://www.w3.org/2000/svg">
<rect width="84" height="84" rx="42" fill="#FFD4C2"/>
<rect x="0.5" y="0.5" width="83" height="83" rx="41.5" stroke="#521400" stroke-opacity="0.1"/>
<g filter="url(#filter0_d_59_2122)">
<rect x="10" y="10" width="64" height="64" rx="32" fill="#FF4800" shape-rendering="crispEdges"/>
<mask id="mask0_59_2122" style="mask-type:alpha" maskUnits="userSpaceOnUse" x="22" y="22" width="40" height="40">
<rect x="22" y="22" width="40" height="40" fill="#D9D9D9"/>
</mask>
<g mask="url(#mask0_59_2122)">
<path d="M35.333 50.625V33.375C35.333 32.9028 35.4997 32.5069 35.833 32.1875C36.1663 31.868 36.5552 31.7083 36.9997 31.7083C37.1386 31.7083 37.2844 31.7291 37.4372 31.7708C37.59 31.8125 37.7358 31.875 37.8747 31.9583L51.458 40.5833C51.708 40.75 51.8955 40.9583 52.0205 41.2083C52.1455 41.4583 52.208 41.7222 52.208 42C52.208 42.2778 52.1455 42.5416 52.0205 42.7916C51.8955 43.0416 51.708 43.25 51.458 43.4166L37.8747 52.0416C37.7358 52.125 37.59 52.1875 37.4372 52.2291C37.2844 52.2708 37.1386 52.2916 36.9997 52.2916C36.5552 52.2916 36.1663 52.1319 35.833 51.8125C35.4997 51.493 35.333 51.0972 35.333 50.625Z" fill="white"/>
</g>
</g>
<defs>
<filter id="filter0_d_59_2122" x="4" y="8" width="76" height="76" filterUnits="userSpaceOnUse" color-interpolation-filters="sRGB">
<feFlood flood-opacity="0" result="BackgroundImageFix"/>
<feColorMatrix in="SourceAlpha" type="matrix" values="0 0 0 0 0 0 0 0 0 0 0 0 0 0 0 0 0 0 127 0" result="hardAlpha"/>
<feOffset dy="4"/>
<feGaussianBlur stdDeviation="3"/>
<feComposite in2="hardAlpha" operator="out"/>
<feColorMatrix type="matrix" values="0 0 0 0 1 0 0 0 0 0.283333 0 0 0 0 0 0 0 0 0.3 0"/>
<feBlend mode="normal" in2="BackgroundImageFix" result="effect1_dropShadow_59_2122"/>
<feBlend mode="normal" in="SourceGraphic" in2="effect1_dropShadow_59_2122" result="shape"/>
</filter>
</defs>
</svg>
